<?xml version="1.0" encoding="UTF-8"?>
<svg width="598.49" height="599.84" enable-background="new 0 0 598.486 671.089" version="1.0" viewBox="0 0 598.49 671.09" xml:space="preserve" xmlns="http://www.w3.org/2000/svg"><g transform="translate(0,35.625)"><path d="m274.8 8.0163c129.28-8.9642 215 54.3 264.01 131.38 24.575 38.648 48.687 97.346 48.799 157.66 0.11898 65.528-21.109 122.28-48.799 163.91-28.459 42.795-65.267 78.142-111.36 101.35-77.048 38.797-184.72 39.858-255.25 2.5024-78.546-41.601-138.94-100.98-161.41-203.95-8.9934-41.209-10.027-94.454 2.5024-140.14 2.9403-10.717 8.2835-21.995 12.513-32.532 20.325-50.637 54.921-94.67 97.596-125.12 17.148-12.237 37.951-24.408 56.306-32.532 22.838-10.108 61.288-20.178 95.094-22.522z" stroke-width=".97521"/><path d="m277.72 0.87049c132.56-9.192 220.46 55.68 270.72 134.72 25.2 39.63 49.925 99.82 50.039 161.66 0.122 67.194-21.646 125.38-50.039 168.08-29.182 43.883-66.926 80.128-114.19 103.93-79.006 39.783-189.42 40.871-261.74 2.566-80.542-42.658-142.47-103.54-165.51-209.14-9.222-42.256-10.282-96.855 2.566-143.7 3.015-10.989 8.494-22.554 12.831-33.359 20.842-51.924 56.317-97.076 100.08-128.31 17.584-12.548 38.916-25.028 57.737-33.359 23.418-10.365 62.846-20.691 97.511-23.094z" fill="#fff"/><path d="m529.18 304.72c0 125.29-101.57 226.85-226.85 226.85s-226.85-101.56-226.85-226.85c0-125.28 101.56-226.85 226.85-226.85 125.28 0 226.85 101.57 226.85 226.85z"/><path d="m277.72 0.87049c132.56-9.192 220.46 55.68 270.72 134.72 25.2 39.63 49.925 99.82 50.039 161.66 0.122 67.194-21.646 125.38-50.039 168.08-29.182 43.883-66.926 80.128-114.19 103.93-79.006 39.783-189.42 40.871-261.74 2.566-80.542-42.658-142.47-103.54-165.51-209.14-9.222-42.256-10.282-96.855 2.566-143.7 3.015-10.989 8.494-22.554 12.831-33.359 20.842-51.924 56.317-97.076 100.08-128.31 17.584-12.548 38.916-25.028 57.737-33.359 23.418-10.365 62.846-20.691 97.511-23.094zm-44.907 21.812c-49.239 12.766-85.342 35.637-116.76 60.303-45.299 35.568-74.177 85.203-91.096 144.98-18.823 66.508-6.732 146.99 19.246 197.59 26.939 52.472 63.11 93.203 114.19 121.89 49.695 27.908 119.59 45.828 192.46 32.076 64.74-12.218 113.91-40.421 153.96-82.115 53.592-55.785 96.665-158.53 68.002-266.87-7.662-28.955-17.679-59.133-33.36-84.681-8.472-13.802-20.904-27.38-33.359-41.057-47.006-51.621-122.98-96.104-220.68-89.813-18.594 1.197-34.935 3.117-52.605 7.699z"/><g fill-opacity="0" stroke="#fff" stroke-width="2"><line x1="316.05" x2="578.19" y1="576.79" y2="314.66"/><line x1="293.13" x2="556.41" y1="556.03" y2="292.75"/><line x1="270.22" x2="534.64" y1="535.27" y2="270.85"/><line x1="247.3" x2="512.87" y1="514.51" y2="248.95"/><line x1="224.38" x2="491.1" y1="493.75" y2="227.04"/><line x1="201.47" x2="469.32" y1="473" y2="205.14"/><line x1="178.55" x2="447.55" y1="452.24" y2="183.24"/><line x1="155.63" x2="425.78" y1="431.48" y2="161.33"/><line x1="132.72" x2="404" y1="410.72" y2="139.43"/><line x1="109.8" x2="382.23" y1="389.96" y2="117.53"/><line x1="86.883" x2="360.46" y1="369.2" y2="95.625"/><line x1="63.966" x2="338.69" y1="348.44" y2="73.721"/><line x1="41.049" x2="316.92" y1="327.68" y2="51.818"/><line x1="18.132" x2="295.14" y1="306.92" y2="29.915"/><line x1="18.043" x2="285.42" y1="309.57" y2="576.96"/><line x1="39.726" x2="307.62" y1="287.58" y2="555.49"/><line x1="61.409" x2="329.83" y1="265.59" y2="534.01"/><line x1="83.092" x2="352.03" y1="243.59" y2="512.54"/><line x1="104.77" x2="374.23" y1="221.6" y2="491.07"/><line x1="126.46" x2="396.44" y1="199.61" y2="469.6"/><line x1="148.14" x2="418.64" y1="177.61" y2="448.12"/><line x1="169.82" x2="440.84" y1="155.62" y2="426.65"/><line x1="191.5" x2="463.05" y1="133.63" y2="405.17"/><line x1="213.19" x2="485.25" y1="111.64" y2="383.7"/><line x1="234.87" x2="507.45" y1="89.642" y2="362.23"/><line x1="256.55" x2="529.66" y1="67.649" y2="340.76"/><line x1="278.24" x2="551.86" y1="45.657" y2="319.28"/><line x1="299.92" x2="574.06" y1="23.664" y2="297.81"/></g><path d="m490.71 106.08c-23.593-23.593-52.599-44.853-87.247-57.737-35.914-13.355-76.54-24.612-124.46-20.529-76.326 6.506-129.92 40.751-170.64 80.832-28.528 28.073-49.987 62.474-64.152 102.64-20.798 58.981-19.536 128.6 3.849 188.61 19.947 51.187 52.595 92.473 98.794 124.46 43.431 30.067 105.76 53.386 175.78 47.473 85.272-7.202 147.66-50.95 188.61-101.36 10.476-12.896 20.892-27.473 26.943-44.906 5.929-12.561 8.831-21.1 11.548-25.661 11.372-25.482 17.397-52.368 19.245-82.114 5.685-91.492-29.517-162.96-78.263-211.7zm-25.131 278.75c-0.163 0.348-0.309 0.672-0.479 1.031-4.23 12.105-11.517 22.227-18.841 31.183-28.634 35.004-72.263 65.382-131.9 70.384-48.961 4.104-92.552-12.087-122.92-32.965-26.392-18.143-46.454-40.601-60.522-67.591-0.858-1.624-9.028-20.447-9.052-21.275-11.145-34.569-12.112-90.155-0.673-123.51 7.634-22.263 20.357-46.351 37.208-65.435 23.266-26.351 46.549-43.236 83.398-55.171 16.825-5.45 31.887-10.997 52.604-11.547 50.52-1.345 101.96 21.338 129.59 46.189 25.384 22.837 54.314 67.322 61.587 109.06 7.485 42.957-0.503 84.898-19.999 119.65z"/><g transform="rotate(-41.437 301.28 297.24)" fill="#69d7e2"><g transform="rotate(51.215 303.29 300.13)"><path d="m148 124.35-0.073-0.099c-7.296-9.999-5.155-23.987 5.59-31.829 10.745-7.841 24.548-5.64 31.844 4.358l0.073 0.099c7.296 9.999 5.155 23.988-5.59 31.829s-24.548 5.641-31.844-4.358zm27.657-20.183-0.073-0.099c-3.666-5.024-10.492-6.752-15.814-2.868-5.273 3.848-5.683 10.703-2.017 15.728l0.073 0.099c3.667 5.024 10.492 6.752 15.765 2.904 5.323-3.884 5.733-10.739 2.066-15.764z"/><path d="m218.34 58.817 10.965-3.518 30.739 35.734-12.197 3.913-5.342-6.37-15.833 5.08-0.58 8.271-11.962 3.838zm18.04 21.958-8.318-10.202-0.889 13.156z"/><path d="m279.8 69.567 0.096-24.203 12.132 0.048-0.095 23.957c-0.025 6.22 3.104 9.188 7.908 9.208 4.804 0.019 7.956-2.801 7.979-8.836l0.097-24.264 12.132 0.048-0.095 23.895c-0.055 13.918-8.023 19.984-20.279 19.935-12.255-0.05-19.928-6.301-19.875-19.788z"/><path d="m363.86 65.338-12.368-3.775 3.056-10.013 36.163 11.037-3.056 10.013-12.368-3.774-9.527 31.216-11.426-3.487z"/><path d="m423.01 76.559 9.946 6.619-8.938 13.432 12.766 8.496 8.939-13.433 9.946 6.619-23.883 35.889-9.947-6.619 9.076-13.638-12.767-8.496-9.075 13.638-9.946-6.619z"/><path d="m458.15 468.88 0.076 0.097c7.674 9.713 6.068 23.775-4.37 32.021s-24.316 6.574-31.99-3.139l-0.076-0.097c-7.674-9.714-6.067-23.775 4.37-32.021 10.438-8.245 24.316-6.574 31.99 3.139zm-26.869 21.227 0.076 0.097c3.856 4.881 10.743 6.347 15.914 2.262 5.122-4.047 5.271-10.913 1.414-15.794l-0.076-0.097c-3.855-4.881-10.743-6.347-15.865-2.3-5.171 4.085-5.319 10.951-1.463 15.832z"/><path d="m390.71 537.18-10.8 3.997-32.282-34.346 12.013-4.447 5.618 6.13 15.594-5.772 0.215-8.288 11.782-4.361zm-18.989-21.142 8.759 9.825 0.309-13.182z"/><path d="m328.89 528.98 1.067 24.179-12.12 0.535-1.057-23.933c-0.274-6.214-3.542-9.028-8.341-8.816s-7.812 3.181-7.546 9.21l1.07 24.24-12.12 0.535-1.054-23.871c-0.614-13.904 7.054-20.346 19.297-20.886 12.244-0.541 20.209 5.333 20.804 18.807z"/><path d="m244.67 536.89 12.487 3.371-2.729 10.108-36.511-9.855 2.729-10.109 12.487 3.371 8.507-31.516 11.536 3.114z"/><path d="m185.65 528.11-10.249-6.142 8.295-13.841-13.153-7.884-8.295 13.841-10.248-6.142 22.164-36.979 10.248 6.143-8.422 14.052 13.154 7.884 8.422-14.052 10.248 6.143z"/></g><path d="m296.54 90.797c7.7282 0 13.996-2.86 18.499-6.572v-19.168h-19.594v8.641h8.3975v5.1724c-1.7647 1.1562-3.9554 1.7647-6.8154 1.7647-6.7546 0-11.562-4.929-11.562-11.805v-0.1217c0-6.5111 4.7464-11.684 10.892-11.684 4.1988 0 7.2414 1.4604 10.284 4.0162l6.9371-8.3367c-4.503-3.8945-9.7971-6.2069-17.282-6.2069-13.205 0-22.941 9.7363-22.941 22.15v0.1217c0 12.901 9.9188 22.028 23.185 22.028z" stroke-width="28.749" aria-label="G"/><path transform="scale(-1)" d="m-313.44-504.94c7.7282 0 13.996-2.86 18.499-6.572v-19.168h-19.594v8.641h8.3976v5.1724c-1.7647 1.1562-3.9554 1.7647-6.8154 1.7647-6.7546 0-11.562-4.929-11.562-11.805v-0.1217c0-6.5112 4.7464-11.684 10.892-11.684 4.1988 0 7.2414 1.4604 10.284 4.0162l6.9371-8.3367c-4.503-3.8945-9.7971-6.2069-17.282-6.2069-13.205 0-22.941 9.7363-22.941 22.15v0.12171c0 12.901 9.9188 22.028 23.185 22.028z" stroke-width="28.749" aria-label="G"/></g><g transform="matrix(.83169 0 0 .83169 853.09 232.76)"><path d="m-714.17-67.226c-8.1172 3.1385-15.818 7.473-22.433 13.154-5.4362-3.2901-12.005-5.1619-18.346-3.9126-10.775 1.9573-19.751 11.651-20.451 22.647-0.46793 5.9226 2.0522 11.994 6.6453 15.78 2.669 2.3288 5.877 3.9305 9.1449 5.2387-2.498 10.498-3.681 21.282-3.7626 32.067-0.19581 14.569 1.2955 29.081 2.4679 43.584 0.48325 5.9578 0.94823 12.207 1.2211 18.134 0.082 1.9025 0.15324 3.8053 0.20278 5.7089-4.1821-0.0666-8.4246 0.41642-12.316 2.0255-4.2278 1.628-8.3311 4.5401-9.9934 8.9084-3.1939 6.3274 2.7747 11.002 5.4361 12.02 2.8524 1.0684 5.767-0.19939 8.4144-1.399 2.642-1.2182 4.8748-3.2323 7.6636-4.1496 0.928-0.8123 0.51828 0.44707 0.53804 1.0413-1.0744 18.079-3.2944 36.114-3.0622 54.252 0.12451 12.853 1.3632 25.864 5.5236 38.093 3.2443 9.3627 8.3559 18.171 15.458 25.137 0.72055 0.7109 1.4449 1.4187 2.1924 2.1014-4.5765 3.2674-9.3362 6.4827-12.897 10.901-2.6452 2.6551-2.8685 8.2543-1.7269 12.352 0.69623 2.4991 6.0895 8.1113 12.115 5.7338 4.5494-1.795 6.7901-3.7958 9.7605-6.2556 3.8218-3.1903 7.6786-6.8756 12.693-8.0399 1.0001-0.18363 2.0615-0.56199 3.0609-0.39778 16.327 6.8234 34.13 9.4682 51.744 9.6298 15.341 0.0874 30.791-1.6018 45.506-6.0632 6.307-1.928 12.457-4.391 18.297-7.4603 3.585 1.4983 5.975 4.7279 8.492 7.5365 2.6318 3.1285 5.2893 6.5575 9.1628 8.1908 2.7467 1.0413 6.8186 0.46063 8.953-1.5185 2.0418-1.4416 3.4166-3.2126 4.135-5.7431 0.90306-2.6155 0.25819-5.4564-0.91618-7.8736-2.0094-4.3534-5.4165-7.8756-8.969-11.013-1.0237-0.84655-2.0769-1.6569-3.1471-2.4436 4.3171-4.384 8.1544-9.2627 11.115-14.668 4.4638-8.0542 7.5073-16.838 9.628-25.779 4.0983-17.595 4.4547-35.8 3.8347-53.778-0.26949-7.9528-0.79326-15.907-1.2857-23.84 0.33523-0.25268 0.81997 0.3265 1.1429 0.4429 3.385 2.272 7.2663 3.788 11.494 4.0668 8.2665 0.54524 15.83-13.63-3.3096-21.07-3.3158-1.354-6.8888-1.9538-10.448-2.1815-0.80155-22.197 0.18975-44.444-1.4098-66.614-0.8843-11.896-2.62-23.748-5.547-35.32 4.9865-2.0177 9.8327-5.0634 12.668-9.7647 3.194-5.1619 3.6722-11.711 1.8135-17.432-2.7972-8.8898-10.886-16.088-20.247-17.124-6.1184-0.69416-12.252 1.4038-17.311 4.7572-9.072-7.5205-20.035-12.551-31.459-15.277-31.487-4.4401-61.089-4.9741-91.487 5.6151z" fill="#69d7e2" stroke="#000" stroke-width="8.2239"/><path d="m280.18-270.73c155.44-10.778 258.51 65.288 317.44 157.97 29.549 46.469 58.54 117.05 58.674 189.56 0.143 78.789-25.381 147.02-58.674 197.08-34.218 51.456-78.475 93.955-133.89 121.86-92.64 46.648-222.11 47.924-306.91 3.0088-94.441-50.019-167.05-121.41-194.07-245.23-10.813-49.548-12.056-113.57 3.0088-168.5 3.5353-12.885 9.9598-26.446 15.045-39.116 24.439-60.884 66.035-113.83 117.35-150.45 20.618-14.713 45.631-29.347 67.7-39.116 27.459-12.154 73.691-24.262 114.34-27.079z" stroke-width="1.1726"/><path d="m283.7-279.33c159.39-11.052 265.08 66.948 325.51 161.98 30.3 47.65 60.028 120.02 60.165 194.38 0.1467 80.792-26.026 150.76-60.165 202.09-35.087 52.763-80.47 96.343-137.3 124.96-94.994 47.834-227.75 49.142-314.71 3.0853-96.841-51.291-171.3-124.5-199.01-251.46-11.088-50.807-12.363-116.46 3.0853-172.78 3.6251-13.213 10.213-27.118 15.428-40.11 25.06-62.432 67.714-116.72 120.33-154.27 21.142-15.087 46.791-30.093 69.421-40.11 28.157-12.463 75.564-24.878 117.24-27.767z" fill="#fff" stroke-width="1.2024"/><path d="m586.05 86.017c0 150.64-122.12 272.75-272.76 272.75s-272.76-122.11-272.76-272.75c0-150.64 122.12-272.76 272.76-272.76 150.64 0 272.76 122.12 272.76 272.76z" stroke-width="1.2024"/><path d="m283.7-279.33c159.39-11.052 265.08 66.948 325.51 161.98 30.3 47.65 60.028 120.02 60.165 194.38 0.1467 80.792-26.026 150.76-60.165 202.09-35.087 52.763-80.47 96.343-137.3 124.96-94.994 47.834-227.75 49.142-314.71 3.0853-96.841-51.291-171.3-124.5-199.01-251.46-11.088-50.807-12.363-116.46 3.0853-172.78 3.6251-13.213 10.213-27.118 15.428-40.11 25.06-62.432 67.714-116.72 120.33-154.27 21.142-15.087 46.791-30.093 69.421-40.11 28.157-12.463 75.564-24.878 117.24-27.767zm-53.995 26.226c-59.203 15.349-102.61 42.849-140.38 72.506-54.466 42.766-89.188 102.45-109.53 174.32-22.632 79.967-8.0943 176.74 23.141 237.57 32.391 63.091 75.881 112.06 137.3 146.56 59.752 33.556 143.79 55.102 231.4 38.567 77.841-14.691 136.96-48.601 185.12-98.732 64.437-67.074 116.23-190.62 81.763-320.88-9.2126-34.815-21.257-71.1-40.111-101.82-10.186-16.595-25.134-32.921-40.11-49.366-56.518-62.067-147.87-115.55-265.34-107.99-22.357 1.4392-42.005 3.7478-63.25 9.257z" stroke-width="1.2024"/><g transform="matrix(1.2024 0 0 1.2024 -50.225 -280.37)" fill-opacity="0" stroke="#fff" stroke-width="2"><line x1="316.05" x2="578.19" y1="576.79" y2="314.66"/><line x1="293.13" x2="556.41" y1="556.03" y2="292.75"/><line x1="270.22" x2="534.64" y1="535.27" y2="270.85"/><line x1="247.3" x2="512.87" y1="514.51" y2="248.95"/><line x1="224.38" x2="491.1" y1="493.75" y2="227.04"/><line x1="201.47" x2="469.32" y1="473" y2="205.14"/><line x1="178.55" x2="447.55" y1="452.24" y2="183.24"/><line x1="155.63" x2="425.78" y1="431.48" y2="161.33"/><line x1="132.72" x2="404" y1="410.72" y2="139.43"/><line x1="109.8" x2="382.23" y1="389.96" y2="117.53"/><line x1="86.883" x2="360.46" y1="369.2" y2="95.625"/><line x1="63.966" x2="338.69" y1="348.44" y2="73.721"/><line x1="41.049" x2="316.92" y1="327.68" y2="51.818"/><line x1="18.132" x2="295.14" y1="306.92" y2="29.915"/><line x1="18.043" x2="285.42" y1="309.57" y2="576.96"/><line x1="39.726" x2="307.62" y1="287.58" y2="555.49"/><line x1="61.409" x2="329.83" y1="265.59" y2="534.01"/><line x1="83.092" x2="352.03" y1="243.59" y2="512.54"/><line x1="104.77" x2="374.23" y1="221.6" y2="491.07"/><line x1="126.46" x2="396.44" y1="199.61" y2="469.6"/><line x1="148.14" x2="418.64" y1="177.61" y2="448.12"/><line x1="169.82" x2="440.84" y1="155.62" y2="426.65"/><line x1="191.5" x2="463.05" y1="133.63" y2="405.17"/><line x1="213.19" x2="485.25" y1="111.64" y2="383.7"/><line x1="234.87" x2="507.45" y1="89.642" y2="362.23"/><line x1="256.55" x2="529.66" y1="67.649" y2="340.76"/><line x1="278.24" x2="551.86" y1="45.657" y2="319.28"/><line x1="299.92" x2="574.06" y1="23.664" y2="297.81"/></g><path d="m539.79-152.83c-28.367-28.367-63.243-53.93-104.9-69.421-43.182-16.058-92.029-29.593-149.64-24.683-91.772 7.8226-156.21 48.998-205.18 97.19-34.301 33.754-60.103 75.117-77.134 123.41-25.007 70.917-23.489 154.62 4.6279 226.77 23.984 61.546 63.238 111.19 118.79 149.64 52.22 36.152 127.17 64.19 211.35 57.08 102.53-8.6594 177.55-61.261 226.77-121.87 12.596-15.506 25.12-33.033 32.395-53.993 7.1288-15.103 10.618-25.37 13.885-30.854 13.673-30.639 20.918-62.966 23.14-98.731 6.8354-110.01-35.49-195.93-94.101-254.54zm-30.217 335.16c-0.19599 0.41842-0.37153 0.80799-0.57593 1.2396-5.086 14.555-13.848 26.725-22.654 37.493-34.429 42.088-86.887 78.613-158.59 84.627-58.869 4.9345-111.28-14.533-147.8-39.636-31.733-21.815-55.855-48.817-72.77-81.269-1.0316-1.9526-10.855-24.585-10.884-25.58-13.4-41.565-14.563-108.4-0.80919-148.51 9.1789-26.768 24.477-55.731 44.738-78.677 27.974-31.684 55.969-51.986 100.27-66.336 20.23-6.5529 38.34-13.222 63.249-13.884 60.744-1.6172 122.6 25.656 155.81 55.536 30.521 27.458 65.305 80.946 74.05 131.13 8.9997 51.65-0.60479 102.08-24.046 143.86z" stroke-width="1.2024"/><g transform="matrix(.9014 -.79571 .79571 .9014 -196.07 48.819)" fill="#69d7e2"><g transform="rotate(51.215 303.29 300.13)"><path d="m148 124.35-0.073-0.099c-7.296-9.999-5.155-23.987 5.59-31.829 10.745-7.841 24.548-5.64 31.844 4.358l0.073 0.099c7.296 9.999 5.155 23.988-5.59 31.829s-24.548 5.641-31.844-4.358zm27.657-20.183-0.073-0.099c-3.666-5.024-10.492-6.752-15.814-2.868-5.273 3.848-5.683 10.703-2.017 15.728l0.073 0.099c3.667 5.024 10.492 6.752 15.765 2.904 5.323-3.884 5.733-10.739 2.066-15.764z"/><path d="m218.34 58.817 10.965-3.518 30.739 35.734-12.197 3.913-5.342-6.37-15.833 5.08-0.58 8.271-11.962 3.838zm18.04 21.958-8.318-10.202-0.889 13.156z"/><path d="m279.8 69.567 0.096-24.203 12.132 0.048-0.095 23.957c-0.025 6.22 3.104 9.188 7.908 9.208 4.804 0.019 7.956-2.801 7.979-8.836l0.097-24.264 12.132 0.048-0.095 23.895c-0.055 13.918-8.023 19.984-20.279 19.935-12.255-0.05-19.928-6.301-19.875-19.788z"/><path d="m363.86 65.338-12.368-3.775 3.056-10.013 36.163 11.037-3.056 10.013-12.368-3.774-9.527 31.216-11.426-3.487z"/><path d="m423.01 76.559 9.946 6.619-8.938 13.432 12.766 8.496 8.939-13.433 9.946 6.619-23.883 35.889-9.947-6.619 9.076-13.638-12.767-8.496-9.075 13.638-9.946-6.619z"/><path d="m458.15 468.88 0.076 0.097c7.674 9.713 6.068 23.775-4.37 32.021s-24.316 6.574-31.99-3.139l-0.076-0.097c-7.674-9.714-6.067-23.775 4.37-32.021 10.438-8.245 24.316-6.574 31.99 3.139zm-26.869 21.227 0.076 0.097c3.856 4.881 10.743 6.347 15.914 2.262 5.122-4.047 5.271-10.913 1.414-15.794l-0.076-0.097c-3.855-4.881-10.743-6.347-15.865-2.3-5.171 4.085-5.319 10.951-1.463 15.832z"/><path d="m390.71 537.18-10.8 3.997-32.282-34.346 12.013-4.447 5.618 6.13 15.594-5.772 0.215-8.288 11.782-4.361zm-18.989-21.142 8.759 9.825 0.309-13.182z"/><path d="m328.89 528.98 1.067 24.179-12.12 0.535-1.057-23.933c-0.274-6.214-3.542-9.028-8.341-8.816s-7.812 3.181-7.546 9.21l1.07 24.24-12.12 0.535-1.054-23.871c-0.614-13.904 7.054-20.346 19.297-20.886 12.244-0.541 20.209 5.333 20.804 18.807z"/><path d="m244.67 536.89 12.487 3.371-2.729 10.108-36.511-9.855 2.729-10.109 12.487 3.371 8.507-31.516 11.536 3.114z"/><path d="m185.65 528.11-10.249-6.142 8.295-13.841-13.153-7.884-8.295 13.841-10.248-6.142 22.164-36.979 10.248 6.143-8.422 14.052 13.154 7.884 8.422-14.052 10.248 6.143z"/></g><path d="m300.04 89.565c7.7282 0 13.996-2.86 18.499-6.572v-19.168h-19.594v8.641h8.3975v5.1724c-1.7647 1.1562-3.9554 1.7647-6.8154 1.7647-6.7546 0-11.562-4.929-11.562-11.805v-0.1217c0-6.5111 4.7464-11.684 10.892-11.684 4.1988 0 7.2414 1.4604 10.284 4.0162l6.9371-8.3367c-4.503-3.8945-9.7971-6.2069-17.282-6.2069-13.205 0-22.941 9.7363-22.941 22.15v0.1217c0 12.901 9.9188 22.028 23.185 22.028z" stroke-width="28.749" aria-label="G"/><path transform="scale(-1)" d="m-313.44-504.94c7.7282 0 13.996-2.86 18.499-6.572v-19.168h-19.594v8.641h8.3976v5.1724c-1.7647 1.1562-3.9554 1.7647-6.8154 1.7647-6.7546 0-11.562-4.929-11.562-11.805v-0.1217c0-6.5112 4.7464-11.684 10.892-11.684 4.1988 0 7.2414 1.4604 10.284 4.0162l6.9371-8.3367c-4.503-3.8945-9.7971-6.2069-17.282-6.2069-13.205 0-22.941 9.7363-22.941 22.15v0.12171c0 12.901 9.9188 22.028 23.185 22.028z" stroke-width="28.749" aria-label="G"/></g><g transform="translate(182.48 -89.906)"><path d="m3.6856 188.16c0.49805 10.26 10.758 5.4786 15.34 2.291 4.3829-3.0879 5.6778-0.49805 6.0763-6.4747 0.29883-3.9844 0.69728-7.8693 0.49806-11.854-6.6739-0.59767-13.846 0.9961-19.325 4.9805-2.8887 1.9922-8.0685 8.5665-2.5899 11.057" fill="#f6d2a2"/><path d="m208.19 314.27c7.8693 4.8809 22.313 19.623 10.459 26.795-11.356 10.36-17.731-11.455-27.692-14.444 4.2833-5.877 9.6622-11.256 17.233-12.352z" fill="#f6d2a2"/><path d="m67.337 330.91c-9.2638 1.3946-14.444 9.7619-22.213 14.045-7.2716 4.2833-10.061-1.3946-10.658-2.5899-1.0957-0.49806-0.99611 0.49805-2.7891-1.295-6.7735-10.658 6.9728-18.428 14.145-23.707 9.9611-1.9922 16.237 6.6739 21.516 13.547z" fill="#f6d2a2"/><path d="m251.92 186.87c-0.49805 10.26-10.758 5.4786-15.34 2.291-4.3829-3.0879-5.6778-0.49806-6.0763-6.4747-0.29883-3.9844-0.69728-7.8693-0.49805-11.854 6.6739-0.59766 13.846 0.99611 19.325 4.9806 2.7891 1.9922 8.0685 8.5665 2.5899 11.057" fill="#f6d2a2"/><path d="m224.72 61.759c35.561-12.551 7.7696-61.261-23.209-39.745-20.321-17.432-48.311-20.619-77.696-20.619-28.788 2.2911-56.181 7.5704-75.306 24.305-30.879-19.922-59.368 27.891-23.11 39.944-10.16 39.446 1.3946 79.689-0.19922 119.83-1.4942 36.059-10.957 84.37 9.0646 116.74 17.033 27.692 53.69 37.553 83.872 38.649 38.549 1.3946 85.267-8.0685 103.99-45.423 17.93-35.561 12.949-79.888 10.658-118.24-2.291-38.749 1.9922-78.095-8.0685-115.45z" fill="#69d7e2"/><path d="m254.61 180.79c-0.99611-2.0918-2.8887-4.4825-4.6817-5.7774-4.5821-3.2872-10.459-5.0802-16.535-5.2794-0.19923-6.1759-0.39845-12.949-0.39845-21.516v-7.7696c-0.0996-24.504-0.39844-35.262-1.793-48.71-1.0957-10.559-2.7891-20.321-5.1798-29.485 8.0685-3.0879 13.348-8.1681 15.44-14.742 1.9922-6.0763 0.99611-12.949-2.3907-19.026-3.4864-5.9767-9.0646-10.459-15.539-12.252-6.9728-1.8926-14.543-0.49806-21.815 4.3829-6.4747-5.4786-13.946-9.6623-22.313-12.85-14.842-5.4786-32.075-7.5704-55.483-7.5704v0.99611l-0.0996-0.99611c-25.002 1.9922-43.53 5.877-58.87 13.348-6.1759 2.9883-11.654 6.5743-16.436 10.758-7.3712-4.5821-15.041-5.6778-22.114-3.4864-6.5743 1.9922-12.252 6.6739-15.639 12.75-3.3868 6.0763-4.1837 13.049-1.8926 19.026 2.2911 5.9767 7.5704 10.658 15.44 13.547-2.4903 10.061-3.7852 20.719-3.9844 32.473-0.19922 11.455 0.29883 20.619 2.0918 41.339 1.2949 15.44 1.793 22.512 1.9922 31.079-6.7735-0.29884-13.547 1.4942-18.627 5.1798-1.793 1.2949-3.7852 3.586-4.6817 5.7774-1.2949 2.7891-0.79689 5.2794 1.793 6.7736 0.39844 4.7813 3.0879 6.9728 7.172 6.5743 2.9883-0.29883 6.5743-1.8926 9.6623-4.084 0.69728-0.49806 1.3946-0.8965 2.0918-1.1953 0.29883-0.0996 0.49805-0.19922 0.79689-0.29884 0 0 0.59766-0.19922 0.79689-0.29883 0.29883-0.0996 0.59767-0.19922 0.79689-0.39844-0.19922 4.6817-0.59766 9.5626-1.4942 20.719-0.99611 12.551-1.4942 19.424-1.6934 27.094-0.8965 28.489 2.4903 49.208 12.651 65.644 3.1875 5.1798 7.0724 9.7619 11.654 13.946-0.8965 0.59767-4.6817 3.3868-5.877 4.2833-4.1837 3.1876-7.0724 5.877-8.7658 8.8654-2.1914 3.8848-2.1914 7.7696 0.29883 11.854l0.19922 0.1992c1.0957 1.0957 1.6934 1.3946 2.4903 1.3946h0.29883c0.09961 0.19922 0.19922 0.29883 0.29883 0.49806 0.29883 0.49805 0.59766 0.89649 0.8965 1.2949 2.4903 2.8887 5.9767 3.586 10.658 0.79689 2.4903-1.295 4.2833-2.7891 8.0685-5.9767 0.09961-0.0996 0.09961-0.0996 0.19922-0.19922 6.0763-5.1798 9.0646-7.0724 13.547-7.7696l1.5938-0.29883c0.59766 0.29883 1.1953 0.49805 1.8926 0.79688 14.145 5.6778 30.581 8.7658 47.216 9.3634 21.516 0.79689 42.235-1.8926 59.767-8.2677 4.6817-1.6934 9.0646-3.6856 13.248-5.877 2.5899 0.99611 4.7813 3.0879 8.965 7.9689 0.19922 0.19923 0.19922 0.19923 0.29883 0.39845 0.19922 0.19922 0.19922 0.29883 0.29883 0.39844 0.19923 0.29883 0.49806 0.49805 0.69728 0.79689 3.2872 3.8848 5.4786 5.7774 7.9689 6.8732 3.2872 1.3946 6.4747 0.69728 9.7619-2.291 5.7774-3.586 6.1759-9.1642 2.3907-15.539-2.6895-4.4825-7.3712-9.1642-11.754-12.153 5.1798-5.0802 9.6622-11.156 13.149-18.03 9.5626-19.125 13.248-41.438 13.049-70.126-0.0996-10.16-0.49805-19.026-1.5938-35.96v-0.49805c0.49805 0.19922 0.99611 0.49805 1.4942 0.8965 3.0879 2.0918 6.6739 3.7852 9.6623 4.084 4.084 0.39845 6.7735-1.793 7.172-6.5743 2.4903-1.5938 2.9883-4.084 1.6934-6.8732zm-31.676-162.47c5.9767 1.5938 11.156 5.7774 14.344 11.356s4.084 11.854 2.291 17.432c-1.8926 5.877-6.6739 10.559-14.145 13.348-1.4942-5.379-3.2872-10.658-5.2794-15.739 2.8887-2.4903 4.2833-5.5782 1.9922-9.9611-2.2911-4.3829-6.2755-4.8809-10.36-3.586-2.5899-3.3868-5.4786-6.3751-8.4669-9.1642 6.5743-4.1837 13.348-5.379 19.623-3.6856zm-212.37 33.668c-2.0918-5.379-1.3946-11.754 1.793-17.332 3.1875-5.5782 8.3673-9.9611 14.543-11.754 6.3751-1.8926 13.248-0.99611 20.022 2.9883-3.8848 3.4864-7.3712 7.4708-10.36 11.854-5.1798-2.6895-10.459-3.1875-13.447 2.2911-3.0879 5.877 0.49805 9.5626 5.5782 12.352-0.69728 1.6934-1.3946 3.4864-1.9922 5.2794-0.69728 2.1914-1.3946 4.4825-1.9922 6.7735-7.2716-2.7891-12.053-7.0724-14.145-12.451zm12.053 135.77c-0.09961 0-0.69728 0.19922-0.69728 0.29883-0.29883 0.0996-0.59767 0.19922-0.8965 0.39844-0.79689 0.29884-1.5938 0.79689-2.3907 1.3946-2.7891 1.9922-6.1759 3.4864-8.7658 3.6856-2.9883 0.29883-4.6817-0.99611-4.9805-4.5821 2.0918-0.69728 2.9883-1.1953 3.7852-2.3907l-1.5938-1.1953c-0.59767 0.79689-1.1953 1.0957-2.9883 1.6934-0.099611 0-0.099611 0-0.19922 0.0996-1.5938-0.8965-1.8926-2.291-0.99611-4.2833 0.79689-1.793 2.5899-3.8848 4.084-4.9805 4.7813-3.4864 11.156-5.1798 17.532-4.7813 0 2.4903 0.09961 4.9806 0 7.3712 0 0.29883 0 0.49806-0.09961 0.79689-0.09961 1.3946-0.09961 1.9922-0.19922 2.6895-0.29883 2.8887-0.49805 3.2872-1.5938 3.7852zm30.082 150.31c-0.09961 0.0996-0.09961 0.0996-0.19922 0.19922-3.6856 3.1876-5.4786 4.4825-7.7696 5.7774-3.7852 2.291-6.3751 1.793-8.1681-0.39844-0.29883-0.29884-0.49805-0.69728-0.69728-0.99611-0.09961-0.0996-0.19922-0.29883-0.29883-0.39845v-0.0996c0.19922-1.793 0.8965-3.0879 2.6895-5.877 0.09961-0.0996 0.09961-0.0996 0.09961-0.19922 1.0957-1.5938 1.5938-2.4903 2.0918-3.586l-1.793-0.79689c-0.39844 0.8965-0.8965 1.6934-1.8926 3.2872-0.09961 0.0996-0.09961 0.0996-0.09961 0.19922-1.793 2.5899-2.5899 4.1837-2.9883 5.9766h-0.09961-0.09961-0.19922c-0.19922-0.0996-0.49806-0.29883-0.8965-0.69727-3.8848-6.1759-0.79689-11.455 7.9689-18.03 1.0957-0.79689 4.7813-3.3868 5.7774-4.1837 0.19922 0 0.39844-0.0996 0.59767-0.19922 5.379 4.5821 11.654 8.5665 18.627 11.854 0 0.0996 0.09961 0.19923 0.19922 0.29884-4.084 0.99611-7.2716 3.0879-12.85 7.8693zm167.25-10.858c3.0879 5.1798 2.9883 9.3634-0.8965 12.252-0.29884-0.59767-0.49806-1.2949-0.8965-2.291 0-0.0996 0-0.0996-0.0996-0.19922-1.3946-3.7852-2.291-5.379-3.9844-7.172l-1.3946 1.3946c1.4942 1.3946 2.1914 2.8887 3.586 6.3751 0 0.0996 0 0.0996 0.0996 0.19923 0.49806 1.2949 0.79689 2.0918 1.0957 2.7891-2.5899 2.1914-4.8809 2.5899-7.2716 1.4942-2.0918-0.8965-4.084-2.7891-7.2716-6.3751-0.19922-0.19923-0.39844-0.49806-0.59766-0.79689-0.0996-0.0996-0.19922-0.19922-0.29884-0.39845-0.19922-0.19922-0.19922-0.19922-0.29883-0.39844-3.6856-4.2833-5.877-6.5743-8.2677-7.8693 5.5782-3.1876 10.559-6.7735 15.041-10.957 4.1837 3.0879 8.8654 7.67 11.455 11.953zm1.3946-32.274c-8.5665 17.233-23.707 29.385-44.028 36.756-17.332 6.2755-37.852 8.8654-59.069 8.0685-36.557-1.2949-68.233-14.045-83.075-38.151-9.9611-16.037-13.248-36.458-12.352-64.548 0.29883-7.67 0.69728-14.543 1.6934-27.094 1.0957-14.145 1.3946-18.229 1.6934-24.604 0.19922-4.5821 0.19922-9.2638 0.09961-14.244-0.19922-8.7658-0.69728-15.739-1.9922-31.377-1.793-20.719-2.291-29.784-2.0918-41.139 0.29883-14.942 2.291-28.09 6.4747-40.542 6.7735-20.221 19.225-33.868 37.155-42.733 15.041-7.3712 33.27-11.156 58.073-13.149 23.209 0 40.143 2.0918 54.786 7.4708 17.532 6.4747 30.581 17.83 39.546 35.262 5.7774 14.145 9.1642 29.385 10.957 46.917 1.3946 13.348 1.6934 24.106 1.793 48.511v7.7696c0.0996 12.053 0.29884 20.52 0.79689 28.987 0.19922 3.2872 0.29883 4.6817 0.79689 12.551 1.0957 16.934 1.4942 25.7 1.5938 35.86 0.19923 28.588-3.3868 50.602-12.85 69.429zm30.481-109.07c-0.0996 0-0.19922-0.0996-0.29883-0.0996-1.793-0.59767-2.3907-0.99611-2.9883-1.6934l-1.5938 1.1953c0.8965 1.1953 1.793 1.6934 3.7852 2.3907-0.39844 3.586-2.0918 4.8809-4.9805 4.5821-2.5899-0.19923-5.9767-1.793-8.7658-3.6856-0.79689-0.59766-1.5938-0.99611-2.3907-1.3946-0.0996 0-0.19922-0.0996-0.29884-0.0996-0.39844-5.4786-0.39844-6.8732-0.59766-9.7619-0.0996-1.793-0.19922-3.586-0.29883-5.379 5.5782 0.0996 11.057 1.793 15.24 4.8809 1.4942 1.0957 3.2872 3.1876 4.084 4.9805 0.99611 1.6934 0.79689 3.1876-0.8965 4.084z"/><g transform="translate(108.93 96.951)"><path d="m29.983 7.172c0.09961 5.0802 1.0957 10.658 0.19922 16.037-1.3946 2.5899-3.9844 2.8887-6.2755 3.8848-3.1875-0.49805-5.877-2.5899-7.172-5.5782-0.79689-6.0763 0.19922-11.854 0.49806-17.93 0-0.19922 3.7852 0.099611 7.172 1.0957 2.8887 0.8965 5.5782 2.3907 5.5782 2.4903z" fill="#fff"/><path d="m1.793 7.5704c-2.7891 10.559 3.6856 27.791 14.344 13.647-0.79689-5.9767 0.099611-11.754 0.39844-17.631 0.09961-0.49805-14.643 3.2872-14.742 3.9844z" fill="#fff"/><path d="m31.178 11.854c-0.19922-2.9883-0.29883-4.1837-0.29883-5.6778v-0.69728l-0.69728-0.19922-12.551-3.8848v-0.69728l-1.2949 0.29883h-0.09961v0.099611l-14.145 3.586-0.49805 0.099611-0.19922 0.49805c-2.1914 5.2794-1.6934 13.248 1.0957 18.129 3.1875 5.5782 8.3673 5.6778 13.647-0.69728 1.4942 2.8887 4.2833 4.8809 7.4708 5.379h0.29883l0.29883-0.09961c0.39844-0.19922 0.79689-0.29883 1.4942-0.59767 0.09961 0 0.09961 0 0.19922-0.09961 2.8887-0.99611 4.084-1.793 5.0802-3.6856l0.09961-0.09961v-0.19922c0.29883-1.793 0.39844-3.6856 0.39844-5.7774 0-1.4942-0.09961-2.8887-0.29883-5.6778zm-15.938-3.6856c-0.09961 1.793-0.19922 2.4903-0.29883 3.4864-0.19922 3.6856-0.19922 6.4747 0.09961 9.2638-4.6817 5.9767-8.3673 5.9767-10.858 1.4942-2.3907-4.1837-2.8887-11.256-1.0957-15.938l12.551-3.1875c-0.099611 1.2949-0.19922 2.5899-0.39844 4.8809zm13.946 14.742c-0.69728 1.1953-1.5938 1.793-3.9844 2.5899-0.09961 0-0.09961 0-0.19922 0.09961-0.59767 0.19922-0.99611 0.39844-1.2949 0.49805-2.6895-0.49805-4.9805-2.291-6.0763-4.7813-0.29883-2.6895-0.29883-5.4786-0.09961-9.1642 0.09961-0.99611 0.09961-1.6934 0.29883-3.4864 0.19922-2.2911 0.29883-3.6856 0.29883-4.9805l10.858 3.2872c0 1.2949 0.09961 2.4903 0.29883 5.0802 0.19922 2.6895 0.29883 4.084 0.29883 5.6778 0 1.8926-0.09961 3.586-0.39844 5.1798z"/></g><g transform="translate(48.476 21.976)"><path d="m2.2911 38.749c9.1642 35.661 66.241 26.496 64.05-9.2638-2.5899-42.833-72.816-34.565-64.05 9.2638" fill="#fff"/><path d="m67.337 29.385c-0.59766-10.36-5.1798-18.428-12.75-23.508-6.7735-4.5821-15.739-6.3751-24.604-5.2794-8.8654 1.1953-17.033 5.1798-22.412 11.455-5.9767 6.9728-8.2677 16.137-6.1759 26.696l0.8965-0.19922-0.8965 0.19922c9.3634 36.657 68.134 27.791 65.942-9.3634zm-64.149 9.1642c-1.9922-10.061 0.19922-18.627 5.7774-25.102 5.0802-5.877 12.75-9.7619 21.217-10.858 8.4669-1.0957 16.934 0.59767 23.309 4.9805 7.0724 4.7813 11.356 12.252 11.953 22.114 2.0918 34.764-53.391 43.132-62.257 8.8654z"/><ellipse cx="18.03" cy="32.872" rx="9.6623" ry="10.459"/><ellipse cx="22.412" cy="35.262" rx="2.2911" ry="2.6895" fill="#fff"/></g><g transform="translate(129.62 18.098)"><path d="m1.1953 35.96c7.0724 40.94 74.011 30.082 64.349-11.156-8.6661-37.055-66.739-26.795-64.349 11.156" fill="#fff"/><path d="m66.44 24.604c-8.8654-38.151-68.632-27.692-66.241 11.455v0.09961c3.2872 19.325 20.52 29.186 39.546 25.998 8.6661-1.4942 16.436-5.6778 21.516-11.854 5.5782-6.8732 7.5704-15.739 5.1798-25.7zm-6.6739 24.504c-4.7813 5.7774-12.053 9.7619-20.321 11.156-18.03 2.9883-34.167-6.2755-37.354-24.405-2.1914-36.856 54.188-46.718 62.556-10.858 2.1914 9.463 0.39844 17.731-4.8809 24.106z"/><ellipse cx="17.631" cy="34.167" rx="9.463" ry="10.459"/><ellipse cx="22.014" cy="36.557" rx="2.1914" ry="2.6895" fill="#fff"/></g><g transform="translate(99.536 70.451)"><path d="m13.248 12.551c-7.8693 0.69728-14.244 9.9611-10.16 17.332 5.379 9.7619 17.432-0.8965 24.903 0.09961 8.6661 0.19922 15.739 9.1642 22.612 1.5938 7.67-8.3673-3.2872-16.535-11.953-20.121z" fill="#f6d2a2"/><path d="m51.598 19.225c-2.6895-3.3868-7.3712-6.4747-12.451-8.5665l-0.19922-0.099611h-0.19922l-25.5 0.99611c-8.8654 0.79689-15.24 11.057-10.957 18.826 1.6934 2.9883 3.9844 4.4825 7.0724 4.6817 2.2911 0.09961 4.6817-0.39844 8.3673-1.6934 0.29883-0.09961 0.69728-0.19922 1.1953-0.39844 4.9805-1.6934 6.9728-2.1914 8.965-1.8926h0.09961c2.3907 0 4.3829 0.69728 8.1681 2.1914 4.1837 1.6934 5.4786 2.1914 7.5704 2.3907 2.8887 0.19922 5.379-0.79689 7.67-3.2872 3.8848-4.2833 3.6856-8.8654 0.19922-13.149zm-1.6934 11.754c-1.8926 2.0918-3.7852 2.7891-6.0763 2.6895-1.793-0.09961-2.9883-0.59767-6.9728-2.1914-3.9844-1.6934-6.1759-2.2911-8.7658-2.3907-2.4903-0.29883-4.5821 0.19922-9.8615 1.9922-0.49806 0.19922-0.8965 0.29883-1.1953 0.39844-7.2716 2.4903-10.758 2.291-13.149-2.0918-3.586-6.4747 1.8926-15.24 9.3634-15.938l25.202-0.99611c4.7813 1.9922 9.0646 4.8809 11.555 7.9689 2.9883 3.586 3.0879 7.172-0.09961 10.559z" fill="#231f20"/><g transform="translate(11.953)"><path d="m28.688 8.2677c-3.0879-11.356-28.987-9.6623-28.389 3.8848 1.2949 10.061 31.377 7.3712 28.389-3.8848z"/></g></g></g></g></g></svg>
